<mxfile host="app.diagrams.net" modified="2024-01-24T13:07:52.701Z" agent="Mozilla/5.0 (X11; Linux x86_64) AppleWebKit/537.36 (KHTML, like Gecko) Chrome/116.0.0.0 Safari/537.36" etag="VF7DRR9W6XNqxvJbxAUP" version="22.1.22" type="device">
  <diagram name="Page-1" id="3GRDQp2RbUjhu-rQpAlW">
    <mxGraphModel dx="1415" dy="1920" grid="1" gridSize="10" guides="1" tooltips="1" connect="1" arrows="1" fold="1" page="1" pageScale="1" pageWidth="850" pageHeight="1100" math="0" shadow="0">
      <root>
        <mxCell id="0" />
        <mxCell id="1" parent="0" />
        <mxCell id="hw8R0K9ZSwKkc37lEHC2-26" value="" style="rounded=1;whiteSpace=wrap;html=1;fillColor=#dae8fc;strokeColor=#6c8ebf;" vertex="1" parent="1">
          <mxGeometry x="120" y="-40" width="560" height="320" as="geometry" />
        </mxCell>
        <mxCell id="9nsZyM-J4-JsA2fCTY8i-28" value="" style="rounded=1;whiteSpace=wrap;html=1;fillColor=#d5e8d4;strokeColor=#82b366;" parent="1" vertex="1">
          <mxGeometry x="160" y="120" width="480" height="120" as="geometry" />
        </mxCell>
        <mxCell id="9nsZyM-J4-JsA2fCTY8i-36" value="" style="rounded=1;whiteSpace=wrap;html=1;fillColor=#f8cecc;strokeColor=#b85450;" parent="1" vertex="1">
          <mxGeometry x="350" y="220" width="60" height="40" as="geometry" />
        </mxCell>
        <mxCell id="9nsZyM-J4-JsA2fCTY8i-32" value="" style="rounded=1;whiteSpace=wrap;html=1;fillColor=#f8cecc;strokeColor=#b85450;" parent="1" vertex="1">
          <mxGeometry x="190" y="220" width="60" height="40" as="geometry" />
        </mxCell>
        <mxCell id="9nsZyM-J4-JsA2fCTY8i-3" value="" style="sketch=0;points=[[0.5,0,0],[1,0.5,0],[0.5,1,0],[0,0.5,0],[0.145,0.145,0],[0.8555,0.145,0],[0.855,0.8555,0],[0.145,0.855,0]];verticalLabelPosition=bottom;html=1;verticalAlign=top;aspect=fixed;align=center;pointerEvents=1;shape=mxgraph.cisco19.rect;prIcon=router;fillColor=#FAFAFA;strokeColor=#000000;" parent="1" vertex="1">
          <mxGeometry x="200" y="200" width="40" height="40" as="geometry" />
        </mxCell>
        <mxCell id="9nsZyM-J4-JsA2fCTY8i-4" value="" style="sketch=0;points=[[0.5,0,0],[1,0.5,0],[0.5,1,0],[0,0.5,0],[0.145,0.145,0],[0.8555,0.145,0],[0.855,0.8555,0],[0.145,0.855,0]];verticalLabelPosition=bottom;html=1;verticalAlign=top;aspect=fixed;align=center;pointerEvents=1;shape=mxgraph.cisco19.rect;prIcon=router;fillColor=#FAFAFA;strokeColor=#000000;" parent="1" vertex="1">
          <mxGeometry x="360" y="200" width="40" height="40" as="geometry" />
        </mxCell>
        <mxCell id="9nsZyM-J4-JsA2fCTY8i-5" value="" style="sketch=0;aspect=fixed;pointerEvents=1;shadow=0;dashed=0;html=1;strokeColor=none;labelPosition=center;verticalLabelPosition=bottom;verticalAlign=top;align=center;fillColor=#000000;shape=mxgraph.azure.computer" parent="1" vertex="1">
          <mxGeometry x="197.78" y="360" width="44.44" height="40" as="geometry" />
        </mxCell>
        <mxCell id="9nsZyM-J4-JsA2fCTY8i-6" value="" style="sketch=0;aspect=fixed;pointerEvents=1;shadow=0;dashed=0;html=1;strokeColor=none;labelPosition=center;verticalLabelPosition=bottom;verticalAlign=top;align=center;fillColor=#000000;shape=mxgraph.azure.computer" parent="1" vertex="1">
          <mxGeometry x="357.78000000000003" y="360" width="44.44" height="40" as="geometry" />
        </mxCell>
        <mxCell id="9nsZyM-J4-JsA2fCTY8i-7" value="" style="endArrow=none;html=1;rounded=0;entryX=0;entryY=0.5;entryDx=0;entryDy=0;entryPerimeter=0;exitX=0.5;exitY=0;exitDx=0;exitDy=0;exitPerimeter=0;" parent="1" source="9nsZyM-J4-JsA2fCTY8i-3" target="hw8R0K9ZSwKkc37lEHC2-14" edge="1">
          <mxGeometry width="50" height="50" relative="1" as="geometry">
            <mxPoint x="290" y="260" as="sourcePoint" />
            <mxPoint x="280" y="100" as="targetPoint" />
          </mxGeometry>
        </mxCell>
        <mxCell id="9nsZyM-J4-JsA2fCTY8i-8" value="" style="endArrow=none;html=1;rounded=0;entryX=0.5;entryY=1;entryDx=0;entryDy=0;entryPerimeter=0;exitX=0.5;exitY=0;exitDx=0;exitDy=0;exitPerimeter=0;" parent="1" source="9nsZyM-J4-JsA2fCTY8i-4" target="hw8R0K9ZSwKkc37lEHC2-14" edge="1">
          <mxGeometry width="50" height="50" relative="1" as="geometry">
            <mxPoint x="230" y="210" as="sourcePoint" />
            <mxPoint x="320" y="100" as="targetPoint" />
          </mxGeometry>
        </mxCell>
        <mxCell id="9nsZyM-J4-JsA2fCTY8i-9" value="" style="endArrow=none;html=1;rounded=0;entryX=0.5;entryY=0;entryDx=0;entryDy=0;entryPerimeter=0;exitX=0.5;exitY=1;exitDx=0;exitDy=0;exitPerimeter=0;" parent="1" source="9nsZyM-J4-JsA2fCTY8i-3" target="9nsZyM-J4-JsA2fCTY8i-5" edge="1">
          <mxGeometry width="50" height="50" relative="1" as="geometry">
            <mxPoint x="230" y="210" as="sourcePoint" />
            <mxPoint x="290" y="110" as="targetPoint" />
          </mxGeometry>
        </mxCell>
        <mxCell id="9nsZyM-J4-JsA2fCTY8i-10" value="" style="endArrow=none;html=1;rounded=0;entryX=0.5;entryY=0;entryDx=0;entryDy=0;entryPerimeter=0;exitX=0.5;exitY=1;exitDx=0;exitDy=0;exitPerimeter=0;" parent="1" source="9nsZyM-J4-JsA2fCTY8i-4" target="9nsZyM-J4-JsA2fCTY8i-6" edge="1">
          <mxGeometry width="50" height="50" relative="1" as="geometry">
            <mxPoint x="230" y="250" as="sourcePoint" />
            <mxPoint x="230" y="370" as="targetPoint" />
          </mxGeometry>
        </mxCell>
        <mxCell id="9nsZyM-J4-JsA2fCTY8i-12" value="R2" style="text;html=1;strokeColor=none;fillColor=none;align=center;verticalAlign=middle;whiteSpace=wrap;rounded=0;" parent="1" vertex="1">
          <mxGeometry x="230" y="200" width="60" height="30" as="geometry" />
        </mxCell>
        <mxCell id="9nsZyM-J4-JsA2fCTY8i-13" value="RR" style="text;html=1;strokeColor=none;fillColor=none;align=center;verticalAlign=middle;whiteSpace=wrap;rounded=0;" parent="1" vertex="1">
          <mxGeometry x="350" width="60" height="30" as="geometry" />
        </mxCell>
        <mxCell id="9nsZyM-J4-JsA2fCTY8i-14" value="R3" style="text;html=1;strokeColor=none;fillColor=none;align=center;verticalAlign=middle;whiteSpace=wrap;rounded=0;" parent="1" vertex="1">
          <mxGeometry x="395" y="200" width="60" height="30" as="geometry" />
        </mxCell>
        <mxCell id="9nsZyM-J4-JsA2fCTY8i-15" value="host1" style="text;html=1;strokeColor=none;fillColor=none;align=center;verticalAlign=middle;whiteSpace=wrap;rounded=0;" parent="1" vertex="1">
          <mxGeometry x="190" y="410" width="60" height="30" as="geometry" />
        </mxCell>
        <mxCell id="9nsZyM-J4-JsA2fCTY8i-17" value="host2" style="text;html=1;strokeColor=none;fillColor=none;align=center;verticalAlign=middle;whiteSpace=wrap;rounded=0;" parent="1" vertex="1">
          <mxGeometry x="350" y="410" width="60" height="30" as="geometry" />
        </mxCell>
        <mxCell id="9nsZyM-J4-JsA2fCTY8i-18" value="e0" style="text;html=1;align=center;verticalAlign=middle;resizable=0;points=[];autosize=1;strokeColor=none;fillColor=none;" parent="1" vertex="1">
          <mxGeometry x="320" y="35" width="40" height="30" as="geometry" />
        </mxCell>
        <mxCell id="9nsZyM-J4-JsA2fCTY8i-19" value="e0" style="text;html=1;align=center;verticalAlign=middle;resizable=0;points=[];autosize=1;strokeColor=none;fillColor=none;" parent="1" vertex="1">
          <mxGeometry x="220" y="180" width="40" height="30" as="geometry" />
        </mxCell>
        <mxCell id="9nsZyM-J4-JsA2fCTY8i-20" value="e1" style="text;html=1;align=center;verticalAlign=middle;resizable=0;points=[];autosize=1;strokeColor=none;fillColor=none;" parent="1" vertex="1">
          <mxGeometry x="190" y="238" width="40" height="30" as="geometry" />
        </mxCell>
        <mxCell id="9nsZyM-J4-JsA2fCTY8i-21" value="e1" style="text;html=1;align=center;verticalAlign=middle;resizable=0;points=[];autosize=1;strokeColor=none;fillColor=none;" parent="1" vertex="1">
          <mxGeometry x="210" y="330" width="40" height="30" as="geometry" />
        </mxCell>
        <mxCell id="9nsZyM-J4-JsA2fCTY8i-22" value="e0" style="text;html=1;align=center;verticalAlign=middle;resizable=0;points=[];autosize=1;strokeColor=none;fillColor=none;" parent="1" vertex="1">
          <mxGeometry x="370" y="330" width="40" height="30" as="geometry" />
        </mxCell>
        <mxCell id="9nsZyM-J4-JsA2fCTY8i-23" value="e0" style="text;html=1;align=center;verticalAlign=middle;resizable=0;points=[];autosize=1;strokeColor=none;fillColor=none;" parent="1" vertex="1">
          <mxGeometry x="370" y="238" width="40" height="30" as="geometry" />
        </mxCell>
        <mxCell id="9nsZyM-J4-JsA2fCTY8i-24" value="e1" style="text;html=1;align=center;verticalAlign=middle;resizable=0;points=[];autosize=1;strokeColor=none;fillColor=none;" parent="1" vertex="1">
          <mxGeometry x="370" y="175" width="40" height="30" as="geometry" />
        </mxCell>
        <mxCell id="9nsZyM-J4-JsA2fCTY8i-25" value="e1" style="text;html=1;align=center;verticalAlign=middle;resizable=0;points=[];autosize=1;strokeColor=none;fillColor=none;" parent="1" vertex="1">
          <mxGeometry x="350" y="65" width="40" height="30" as="geometry" />
        </mxCell>
        <mxCell id="9nsZyM-J4-JsA2fCTY8i-29" value="VxLAN" style="text;html=1;strokeColor=none;fillColor=none;align=center;verticalAlign=middle;whiteSpace=wrap;rounded=0;" parent="1" vertex="1">
          <mxGeometry x="580" y="120" width="60" height="30" as="geometry" />
        </mxCell>
        <mxCell id="9nsZyM-J4-JsA2fCTY8i-30" value="" style="curved=1;endArrow=classic;html=1;rounded=0;fillColor=#d5e8d4;strokeColor=#82b366;startArrow=classic;startFill=1;" parent="1" edge="1">
          <mxGeometry width="50" height="50" relative="1" as="geometry">
            <mxPoint x="360" y="190" as="sourcePoint" />
            <mxPoint x="260" y="190" as="targetPoint" />
            <Array as="points">
              <mxPoint x="310" y="160" />
            </Array>
          </mxGeometry>
        </mxCell>
        <mxCell id="9nsZyM-J4-JsA2fCTY8i-33" value="br0" style="text;html=1;strokeColor=none;fillColor=none;align=center;verticalAlign=middle;whiteSpace=wrap;rounded=0;" parent="1" vertex="1">
          <mxGeometry x="210" y="238" width="60" height="30" as="geometry" />
        </mxCell>
        <mxCell id="9nsZyM-J4-JsA2fCTY8i-37" value="br0" style="text;html=1;strokeColor=none;fillColor=none;align=center;verticalAlign=middle;whiteSpace=wrap;rounded=0;" parent="1" vertex="1">
          <mxGeometry x="330" y="238" width="60" height="30" as="geometry" />
        </mxCell>
        <mxCell id="9nsZyM-J4-JsA2fCTY8i-38" value="20.1.1.1/24" style="text;html=1;strokeColor=none;fillColor=none;align=center;verticalAlign=middle;whiteSpace=wrap;rounded=0;fontSize=8;" parent="1" vertex="1">
          <mxGeometry x="230" y="320" width="60" height="30" as="geometry" />
        </mxCell>
        <mxCell id="9nsZyM-J4-JsA2fCTY8i-39" value="20.1.1.2/24" style="text;html=1;strokeColor=none;fillColor=none;align=center;verticalAlign=middle;whiteSpace=wrap;rounded=0;fontSize=8;" parent="1" vertex="1">
          <mxGeometry x="390" y="320" width="60" height="30" as="geometry" />
        </mxCell>
        <mxCell id="9nsZyM-J4-JsA2fCTY8i-40" value="20.1.1.1/24" style="text;html=1;strokeColor=none;fillColor=none;align=center;verticalAlign=middle;whiteSpace=wrap;rounded=0;" parent="1" vertex="1">
          <mxGeometry x="570" y="135" width="60" height="30" as="geometry" />
        </mxCell>
        <mxCell id="9nsZyM-J4-JsA2fCTY8i-41" value="20.1.1.2/24" style="text;html=1;strokeColor=none;fillColor=none;align=center;verticalAlign=middle;whiteSpace=wrap;rounded=0;fontSize=8;" parent="1" vertex="1">
          <mxGeometry x="410" y="240" width="60" height="30" as="geometry" />
        </mxCell>
        <mxCell id="9nsZyM-J4-JsA2fCTY8i-42" value="20.1.1.1/24" style="text;html=1;strokeColor=none;fillColor=none;align=center;verticalAlign=middle;whiteSpace=wrap;rounded=0;fontSize=8;" parent="1" vertex="1">
          <mxGeometry x="130" y="238" width="60" height="30" as="geometry" />
        </mxCell>
        <mxCell id="9nsZyM-J4-JsA2fCTY8i-43" value="10.1.1.2/30" style="text;html=1;strokeColor=none;fillColor=none;align=center;verticalAlign=middle;whiteSpace=wrap;rounded=0;fontSize=8;" parent="1" vertex="1">
          <mxGeometry x="180" y="165" width="60" height="30" as="geometry" />
        </mxCell>
        <mxCell id="9nsZyM-J4-JsA2fCTY8i-44" value="10.1.1.6/30" style="text;html=1;strokeColor=none;fillColor=none;align=center;verticalAlign=middle;whiteSpace=wrap;rounded=0;fontSize=8;" parent="1" vertex="1">
          <mxGeometry x="380" y="160" width="60" height="30" as="geometry" />
        </mxCell>
        <mxCell id="hw8R0K9ZSwKkc37lEHC2-1" value="" style="rounded=1;whiteSpace=wrap;html=1;fillColor=#f8cecc;strokeColor=#b85450;" vertex="1" parent="1">
          <mxGeometry x="510" y="220" width="60" height="40" as="geometry" />
        </mxCell>
        <mxCell id="hw8R0K9ZSwKkc37lEHC2-2" value="" style="sketch=0;points=[[0.5,0,0],[1,0.5,0],[0.5,1,0],[0,0.5,0],[0.145,0.145,0],[0.8555,0.145,0],[0.855,0.8555,0],[0.145,0.855,0]];verticalLabelPosition=bottom;html=1;verticalAlign=top;aspect=fixed;align=center;pointerEvents=1;shape=mxgraph.cisco19.rect;prIcon=router;fillColor=#FAFAFA;strokeColor=#000000;" vertex="1" parent="1">
          <mxGeometry x="520" y="200" width="40" height="40" as="geometry" />
        </mxCell>
        <mxCell id="hw8R0K9ZSwKkc37lEHC2-3" value="" style="sketch=0;aspect=fixed;pointerEvents=1;shadow=0;dashed=0;html=1;strokeColor=none;labelPosition=center;verticalLabelPosition=bottom;verticalAlign=top;align=center;fillColor=#000000;shape=mxgraph.azure.computer" vertex="1" parent="1">
          <mxGeometry x="517.78" y="360" width="44.44" height="40" as="geometry" />
        </mxCell>
        <mxCell id="hw8R0K9ZSwKkc37lEHC2-4" value="" style="endArrow=none;html=1;rounded=0;entryX=0.5;entryY=0;entryDx=0;entryDy=0;entryPerimeter=0;exitX=0.5;exitY=1;exitDx=0;exitDy=0;exitPerimeter=0;" edge="1" parent="1" source="hw8R0K9ZSwKkc37lEHC2-2" target="hw8R0K9ZSwKkc37lEHC2-3">
          <mxGeometry width="50" height="50" relative="1" as="geometry">
            <mxPoint x="550" y="210" as="sourcePoint" />
            <mxPoint x="610" y="110" as="targetPoint" />
          </mxGeometry>
        </mxCell>
        <mxCell id="hw8R0K9ZSwKkc37lEHC2-5" value="R4" style="text;html=1;strokeColor=none;fillColor=none;align=center;verticalAlign=middle;whiteSpace=wrap;rounded=0;" vertex="1" parent="1">
          <mxGeometry x="550" y="200" width="60" height="30" as="geometry" />
        </mxCell>
        <mxCell id="hw8R0K9ZSwKkc37lEHC2-6" value="host1" style="text;html=1;strokeColor=none;fillColor=none;align=center;verticalAlign=middle;whiteSpace=wrap;rounded=0;" vertex="1" parent="1">
          <mxGeometry x="510" y="410" width="60" height="30" as="geometry" />
        </mxCell>
        <mxCell id="hw8R0K9ZSwKkc37lEHC2-7" value="e2" style="text;html=1;align=center;verticalAlign=middle;resizable=0;points=[];autosize=1;strokeColor=none;fillColor=none;" vertex="1" parent="1">
          <mxGeometry x="540" y="180" width="40" height="30" as="geometry" />
        </mxCell>
        <mxCell id="hw8R0K9ZSwKkc37lEHC2-8" value="e0" style="text;html=1;align=center;verticalAlign=middle;resizable=0;points=[];autosize=1;strokeColor=none;fillColor=none;" vertex="1" parent="1">
          <mxGeometry x="510" y="238" width="40" height="30" as="geometry" />
        </mxCell>
        <mxCell id="hw8R0K9ZSwKkc37lEHC2-9" value="e0" style="text;html=1;align=center;verticalAlign=middle;resizable=0;points=[];autosize=1;strokeColor=none;fillColor=none;" vertex="1" parent="1">
          <mxGeometry x="530" y="330" width="40" height="30" as="geometry" />
        </mxCell>
        <mxCell id="hw8R0K9ZSwKkc37lEHC2-10" value="br0" style="text;html=1;strokeColor=none;fillColor=none;align=center;verticalAlign=middle;whiteSpace=wrap;rounded=0;" vertex="1" parent="1">
          <mxGeometry x="530" y="238" width="60" height="30" as="geometry" />
        </mxCell>
        <mxCell id="hw8R0K9ZSwKkc37lEHC2-11" value="20.1.1.3/24" style="text;html=1;strokeColor=none;fillColor=none;align=center;verticalAlign=middle;whiteSpace=wrap;rounded=0;fontSize=8;" vertex="1" parent="1">
          <mxGeometry x="550" y="320" width="60" height="30" as="geometry" />
        </mxCell>
        <mxCell id="hw8R0K9ZSwKkc37lEHC2-12" value="20.1.1.1/24" style="text;html=1;strokeColor=none;fillColor=none;align=center;verticalAlign=middle;whiteSpace=wrap;rounded=0;fontSize=8;" vertex="1" parent="1">
          <mxGeometry x="570" y="238" width="60" height="30" as="geometry" />
        </mxCell>
        <mxCell id="hw8R0K9ZSwKkc37lEHC2-13" value="" style="curved=1;endArrow=classic;html=1;rounded=0;fillColor=#d5e8d4;strokeColor=#82b366;startArrow=classic;startFill=1;" edge="1" parent="1">
          <mxGeometry width="50" height="50" relative="1" as="geometry">
            <mxPoint x="517.78" y="190" as="sourcePoint" />
            <mxPoint x="417.78" y="190" as="targetPoint" />
            <Array as="points">
              <mxPoint x="467.78" y="160" />
            </Array>
          </mxGeometry>
        </mxCell>
        <mxCell id="hw8R0K9ZSwKkc37lEHC2-14" value="" style="sketch=0;points=[[0.5,0,0],[1,0.5,0],[0.5,1,0],[0,0.5,0],[0.145,0.145,0],[0.8555,0.145,0],[0.855,0.8555,0],[0.145,0.855,0]];verticalLabelPosition=bottom;html=1;verticalAlign=top;aspect=fixed;align=center;pointerEvents=1;shape=mxgraph.cisco19.rect;prIcon=router;fillColor=#FAFAFA;strokeColor=#000000;" vertex="1" parent="1">
          <mxGeometry x="360" y="30" width="40" height="40" as="geometry" />
        </mxCell>
        <mxCell id="hw8R0K9ZSwKkc37lEHC2-16" value="" style="endArrow=none;html=1;rounded=0;entryX=1;entryY=0.5;entryDx=0;entryDy=0;entryPerimeter=0;exitX=0.5;exitY=0;exitDx=0;exitDy=0;exitPerimeter=0;" edge="1" parent="1" source="hw8R0K9ZSwKkc37lEHC2-2" target="hw8R0K9ZSwKkc37lEHC2-14">
          <mxGeometry width="50" height="50" relative="1" as="geometry">
            <mxPoint x="390" y="210" as="sourcePoint" />
            <mxPoint x="392" y="115" as="targetPoint" />
          </mxGeometry>
        </mxCell>
        <mxCell id="hw8R0K9ZSwKkc37lEHC2-17" value="e2" style="text;html=1;align=center;verticalAlign=middle;resizable=0;points=[];autosize=1;strokeColor=none;fillColor=none;" vertex="1" parent="1">
          <mxGeometry x="395" y="35" width="40" height="30" as="geometry" />
        </mxCell>
        <mxCell id="hw8R0K9ZSwKkc37lEHC2-18" value="lo 1.1.1.1" style="text;html=1;strokeColor=none;fillColor=none;align=center;verticalAlign=middle;whiteSpace=wrap;rounded=0;fontSize=8;" vertex="1" parent="1">
          <mxGeometry x="390" width="60" height="30" as="geometry" />
        </mxCell>
        <mxCell id="hw8R0K9ZSwKkc37lEHC2-19" value="10.1.1.1/30" style="text;html=1;strokeColor=none;fillColor=none;align=center;verticalAlign=middle;whiteSpace=wrap;rounded=0;fontSize=8;" vertex="1" parent="1">
          <mxGeometry x="280" y="35" width="60" height="30" as="geometry" />
        </mxCell>
        <mxCell id="hw8R0K9ZSwKkc37lEHC2-20" value="10.1.1.5/30" style="text;html=1;strokeColor=none;fillColor=none;align=center;verticalAlign=middle;whiteSpace=wrap;rounded=0;fontSize=8;" vertex="1" parent="1">
          <mxGeometry x="380" y="80" width="60" height="30" as="geometry" />
        </mxCell>
        <mxCell id="hw8R0K9ZSwKkc37lEHC2-21" value="10.1.1.9/30" style="text;html=1;strokeColor=none;fillColor=none;align=center;verticalAlign=middle;whiteSpace=wrap;rounded=0;fontSize=8;" vertex="1" parent="1">
          <mxGeometry x="425" y="35" width="60" height="30" as="geometry" />
        </mxCell>
        <mxCell id="hw8R0K9ZSwKkc37lEHC2-22" value="lo 1.1.1.2" style="text;html=1;strokeColor=none;fillColor=none;align=center;verticalAlign=middle;whiteSpace=wrap;rounded=0;fontSize=8;" vertex="1" parent="1">
          <mxGeometry x="260" y="200" width="60" height="30" as="geometry" />
        </mxCell>
        <mxCell id="hw8R0K9ZSwKkc37lEHC2-23" value="lo 1.1.1.3" style="text;html=1;strokeColor=none;fillColor=none;align=center;verticalAlign=middle;whiteSpace=wrap;rounded=0;fontSize=8;" vertex="1" parent="1">
          <mxGeometry x="425" y="200" width="60" height="30" as="geometry" />
        </mxCell>
        <mxCell id="hw8R0K9ZSwKkc37lEHC2-24" value="lo 1.1.1.4" style="text;html=1;strokeColor=none;fillColor=none;align=center;verticalAlign=middle;whiteSpace=wrap;rounded=0;fontSize=8;" vertex="1" parent="1">
          <mxGeometry x="580" y="200" width="60" height="30" as="geometry" />
        </mxCell>
        <mxCell id="hw8R0K9ZSwKkc37lEHC2-27" value="OSPF Area 0 / BGP AS1" style="text;html=1;strokeColor=none;fillColor=none;align=center;verticalAlign=middle;whiteSpace=wrap;rounded=0;" vertex="1" parent="1">
          <mxGeometry x="150" y="-40" width="140" height="30" as="geometry" />
        </mxCell>
        <mxCell id="hw8R0K9ZSwKkc37lEHC2-29" value="10.1.1.10/30" style="text;html=1;strokeColor=none;fillColor=none;align=center;verticalAlign=middle;whiteSpace=wrap;rounded=0;fontSize=8;" vertex="1" parent="1">
          <mxGeometry x="560" y="165" width="60" height="30" as="geometry" />
        </mxCell>
        <mxCell id="hw8R0K9ZSwKkc37lEHC2-32" value="" style="curved=1;endArrow=classic;html=1;rounded=0;fillColor=#dae8fc;strokeColor=#6c8ebf;startArrow=classic;startFill=1;entryX=0.75;entryY=0;entryDx=0;entryDy=0;exitX=0.5;exitY=1;exitDx=0;exitDy=0;" edge="1" parent="1">
          <mxGeometry width="50" height="50" relative="1" as="geometry">
            <mxPoint x="310" y="65" as="sourcePoint" />
            <mxPoint x="225" y="165" as="targetPoint" />
            <Array as="points">
              <mxPoint x="270" y="80" />
              <mxPoint x="230" y="130" />
            </Array>
          </mxGeometry>
        </mxCell>
        <mxCell id="hw8R0K9ZSwKkc37lEHC2-33" value="BGP Neighboor" style="edgeLabel;html=1;align=center;verticalAlign=middle;resizable=0;points=[];fontSize=8;" vertex="1" connectable="0" parent="hw8R0K9ZSwKkc37lEHC2-32">
          <mxGeometry x="-0.0597" y="2" relative="1" as="geometry">
            <mxPoint y="-1" as="offset" />
          </mxGeometry>
        </mxCell>
        <mxCell id="hw8R0K9ZSwKkc37lEHC2-34" value="" style="curved=1;endArrow=classic;html=1;rounded=0;fillColor=#dae8fc;strokeColor=#6c8ebf;startArrow=classic;startFill=1;entryX=0.25;entryY=1;entryDx=0;entryDy=0;exitX=0.28;exitY=-0.01;exitDx=0;exitDy=0;exitPerimeter=0;" edge="1" parent="1" source="hw8R0K9ZSwKkc37lEHC2-7" target="hw8R0K9ZSwKkc37lEHC2-21">
          <mxGeometry width="50" height="50" relative="1" as="geometry">
            <mxPoint x="530" y="60" as="sourcePoint" />
            <mxPoint x="445" y="160" as="targetPoint" />
            <Array as="points">
              <mxPoint x="540" y="150" />
              <mxPoint x="530" y="130" />
              <mxPoint x="520" y="110" />
              <mxPoint x="480" y="80" />
            </Array>
          </mxGeometry>
        </mxCell>
        <mxCell id="hw8R0K9ZSwKkc37lEHC2-35" value="BGP Neighboor" style="edgeLabel;html=1;align=center;verticalAlign=middle;resizable=0;points=[];fontSize=8;" vertex="1" connectable="0" parent="hw8R0K9ZSwKkc37lEHC2-34">
          <mxGeometry x="-0.0597" y="2" relative="1" as="geometry">
            <mxPoint y="-1" as="offset" />
          </mxGeometry>
        </mxCell>
        <mxCell id="hw8R0K9ZSwKkc37lEHC2-36" value="" style="curved=1;endArrow=classic;html=1;rounded=0;fillColor=#dae8fc;strokeColor=#6c8ebf;startArrow=classic;startFill=1;entryX=-0.038;entryY=0.25;entryDx=0;entryDy=0;entryPerimeter=0;" edge="1" parent="1" source="9nsZyM-J4-JsA2fCTY8i-25" target="9nsZyM-J4-JsA2fCTY8i-24">
          <mxGeometry width="50" height="50" relative="1" as="geometry">
            <mxPoint x="330" y="85" as="sourcePoint" />
            <mxPoint x="245" y="185" as="targetPoint" />
            <Array as="points">
              <mxPoint x="340" y="140" />
            </Array>
          </mxGeometry>
        </mxCell>
        <mxCell id="hw8R0K9ZSwKkc37lEHC2-37" value="BGP Neighboor" style="edgeLabel;html=1;align=center;verticalAlign=middle;resizable=0;points=[];fontSize=8;" vertex="1" connectable="0" parent="hw8R0K9ZSwKkc37lEHC2-36">
          <mxGeometry x="-0.0597" y="2" relative="1" as="geometry">
            <mxPoint y="-1" as="offset" />
          </mxGeometry>
        </mxCell>
      </root>
    </mxGraphModel>
  </diagram>
</mxfile>
